<svg xmlns="http://www.w3.org/2000/svg" width="110" height="110"><g transform="translate(-151.412 -3109)"><circle data-name="Ellipse 270" cx="53.353" cy="53.353" r="53.353" transform="translate(152.764 3109.154)" fill="#fff"/><g data-name="Group 333" fill="none" stroke="#014f80"><g data-name="Ellipse 284" stroke-width="4" transform="translate(151.412 3109)"><circle cx="55" cy="55" r="55" stroke="none"/><circle cx="55" cy="55" r="53"/></g><g data-name="Ellipse 292" transform="translate(162.412 3120)"><circle cx="44" cy="44" r="44" stroke="none"/><circle cx="44" cy="44" r="43.5"/></g></g><g transform="translate(176.896 3129.479)" stroke-width="2" stroke-linecap="round" stroke-linejoin="round"><path data-name="Rectangle 1068" stroke="#014f80" fill="none" d="M3.199 23.768H20.14v33.063H3.199z"/><path data-name="Rectangle 1069" stroke="#014f80" fill="none" d="M8.24 31.083h6.96v13.874H8.24z"/><path data-name="Line 1" fill="none" stroke="#014f80" d="M8.24 36.552h6.96"/><path data-name="Line 2" fill="none" stroke="#014f80" d="M31.438 20.43h11.445"/><path data-name="Line 3" fill="none" stroke="#014f80" d="M31.438 27.393h11.445"/><path data-name="Line 4" fill="none" stroke="#014f80" d="M31.438 34.303h11.445"/><rect data-name="Rectangle 1070" width="15.376" height="15.376" rx="7.688" transform="translate(29.473)" stroke="#014f80" fill="#014f80"/><path data-name="Line 5" fill="none" stroke="#fff" d="M37.161 4.204v6.968"/><path data-name="Line 6" fill="none" stroke="#fff" d="M33.677 7.688h6.968"/><path data-name="Path 200" d="M20.139 56.831V7.688" fill="none" stroke="#014f80"/><path data-name="Line 7" fill="none" stroke="#014f80" d="M54.182 7.688v49.143"/><path data-name="Path 201" d="M31.439 56.83V39.357h11.444V56.83" fill="none" stroke="#014f80"/><path data-name="Line 8" fill="none" stroke="#014f80" d="M20.139 7.688h9.333"/><path data-name="Line 9" fill="none" stroke="#014f80" d="M54.182 7.688h-9.333"/><path data-name="Path 202" d="M20.139 56.835h34.043" fill="none" stroke="#014f80"/><path data-name="Line 10" fill="none" stroke="#014f80" d="M3.199 56.831H0"/><path data-name="Line 11" fill="none" stroke="#014f80" d="M57.381 56.831h-3.199"/></g></g></svg>