<svg xmlns="http://www.w3.org/2000/svg" width="110" height="110"><g stroke="#014f80"><g transform="translate(35.727 24.684)" stroke-width="2"><path data-name="Path 203" d="M4.867 3.8H0v14.016a17.409 17.409 0 0016.9 17.4c.24.007.482.012.726.015a17.3 17.3 0 0017.3-17.405V3.8h-4.859" fill="none" stroke-linecap="round" stroke-linejoin="round"/><path data-name="Path 204" d="M17.505 35.236l3.082 6.19a4.87 4.87 0 01-1.308 5.936h0a4.9 4.9 0 00.088 7.69l2.907 2.454" fill="none" stroke-linecap="round" stroke-linejoin="round"/><circle data-name="Ellipse 289" cx="7.05" cy="7.05" r="7.05" transform="translate(22.275 50.433)" stroke-linecap="round" stroke-linejoin="round" fill="#014f80"/><circle data-name="Ellipse 290" cx="3.8" cy="3.8" r="3.8" transform="translate(4.866)" fill="none" stroke-miterlimit="10"/><circle data-name="Ellipse 291" cx="3.8" cy="3.8" r="3.8" transform="translate(22.466)" fill="none" stroke-miterlimit="10"/></g><g data-name="Group 334" fill="none"><g data-name="Ellipse 284" stroke-width="4"><circle cx="55" cy="55" r="55" stroke="none"/><circle cx="55" cy="55" r="53"/></g><g data-name="Ellipse 292" transform="translate(11 11)"><circle cx="44" cy="44" r="44" stroke="none"/><circle cx="44" cy="44" r="43.5"/></g></g></g></svg>