<svg xmlns="http://www.w3.org/2000/svg" width="110" height="110"><path data-name="Path 207" d="M53.684.154A53.353 53.353 0 11.331 53.507 53.353 53.353 0 0153.684.154z" fill="#fff"/><g stroke="#014f80" stroke-linecap="round" stroke-linejoin="round" stroke-width="2"><path data-name="Path 208" d="M74.822 30.26v49.422H34.658V30.26h11.149v4.122h17.821V30.26z" fill="none"/><path data-name="Line 21" fill="none" d="M42.378 72.339h24.515"/><path data-name="Line 22" fill="none" d="M42.378 66.273h24.515"/><path data-name="Line 23" fill="none" d="M42.378 59.55h24.515"/><path data-name="Line 24" fill="none" d="M54.74 40.449v13.617"/><path data-name="Line 25" fill="none" d="M62.063 46.93H47.418"/><path data-name="Path 209" d="M63.628 26.066v8.317H45.807v-8.317h4.766a4.024 4.024 0 014.167-3.875 4.024 4.024 0 014.167 3.875z" fill="#014f80"/></g><g data-name="Group 332" fill="none" stroke="#014f80"><g data-name="Ellipse 284" stroke-width="4"><circle cx="55" cy="55" r="55" stroke="none"/><circle cx="55" cy="55" r="53"/></g><g data-name="Ellipse 292" transform="translate(11 11)"><circle cx="44" cy="44" r="44" stroke="none"/><circle cx="44" cy="44" r="43.5"/></g></g></svg>