<svg xmlns="http://www.w3.org/2000/svg" width="110" height="110"><g stroke="#014f80"><g stroke-linecap="round" stroke-width="2"><path data-name="Path 206" d="M59.975 32.343l-23.41 23.41-2.724 17.793h0l17.783-2.553 23.5-23.5" fill="none" stroke-linejoin="round"/><path data-name="Line 12" fill="none" stroke-linejoin="round" d="M33.841 73.546l-6.136 6.136"/><path data-name="Line 13" fill="none" stroke-linejoin="round" d="M68.863 53.755l-5.535-5.535"/><path data-name="Line 14" fill="none" stroke-linejoin="round" d="M64.25 58.368l-5.535-5.535"/><path data-name="Line 15" fill="none" stroke-linejoin="round" d="M59.637 62.981l-5.535-5.535"/><path data-name="Line 16" fill="none" stroke-linejoin="round" d="M55.023 67.595l-5.535-5.535"/><path data-name="Line 17" fill="none" stroke-linejoin="round" d="M55.953 28.32l23.113 23.113"/><path data-name="Line 18" fill="none" stroke-linejoin="round" d="M73.18 28.419l-8.583 8.583"/><path data-name="Path 213" d="M65.462 36.241l5.628 5.788 7.315-7.315-5.717-5.7z" fill="#014f80"/><path data-name="Line 20" fill="none" stroke-linejoin="round" d="M68.445 23.684l15.149 15.149"/></g><g data-name="Group 331" fill="none"><g data-name="Ellipse 284" stroke-width="4"><circle cx="55" cy="55" r="55" stroke="none"/><circle cx="55" cy="55" r="53"/></g><g data-name="Ellipse 292" transform="translate(11 11)"><circle cx="44" cy="44" r="44" stroke="none"/><circle cx="44" cy="44" r="43.5"/></g></g></g></svg>