<svg xmlns="http://www.w3.org/2000/svg" width="110" height="110"><g data-name="Group 327"><path data-name="Path 210" d="M55.532 35.393l6.329 11.111 12.523 2.586-8.612 9.453 1.41 12.709-11.652-5.269-11.652 5.269 1.41-12.709-8.612-9.453 12.523-2.586z" fill="none" stroke="#014f80" stroke-linejoin="round" stroke-width="2"/><path data-name="Line 26" fill="none" stroke="#014f80" stroke-linejoin="round" stroke-width="2" d="M55.532 29.414v-6.45"/><path data-name="Line 27" fill="none" stroke="#014f80" stroke-linejoin="round" stroke-width="2" d="M30.994 47.242l-6.135-1.993"/><path data-name="Line 28" fill="none" stroke="#014f80" stroke-linejoin="round" stroke-width="2" d="M40.366 76.089l-3.791 5.218"/><path data-name="Line 29" fill="none" stroke="#014f80" stroke-linejoin="round" stroke-width="2" d="M70.697 76.089l3.791 5.218"/><path data-name="Line 30" fill="none" stroke="#014f80" stroke-linejoin="round" stroke-width="2" d="M80.07 47.242l6.135-1.993"/><path data-name="Line 37" fill="none" stroke="#014f80" stroke-miterlimit="10" stroke-width="2" d="M35.181 28.564v4.3"/><path data-name="Line 38" fill="none" stroke="#014f80" stroke-miterlimit="10" stroke-width="2" d="M37.331 30.714h-4.3"/><path data-name="Line 39" fill="none" stroke="#014f80" stroke-miterlimit="10" stroke-width="2" d="M57.682 83.716v4.3"/><path data-name="Line 40" fill="none" stroke="#014f80" stroke-miterlimit="10" stroke-width="2" d="M59.832 85.866h-4.3"/><path data-name="Heart" d="M78.01 28.147a2.455 2.455 0 00-3.494 0l-.343.345-.344-.345a2.471 2.471 0 00-3.494 3.494l3.838 3.838 3.837-3.838a2.455 2.455 0 000-3.494M28.917 63.228a2.4 2.4 0 00-3.409 0l-.335.335-.335-.335a2.411 2.411 0 00-3.409 3.409l3.744 3.744 3.744-3.744a2.4 2.4 0 000-3.409m57.98-1.983a2.382 2.382 0 00-3.39 0l-.333.333-.334-.333a2.4 2.4 0 00-3.39 3.39l3.723 3.723 3.724-3.723a2.382 2.382 0 000-3.39" fill="#014f80" fill-rule="evenodd"/></g><g data-name="Group 335" fill="none" stroke="#014f80"><g data-name="Ellipse 284" stroke-width="4"><circle cx="55" cy="55" r="55" stroke="none"/><circle cx="55" cy="55" r="53"/></g><g data-name="Ellipse 292" transform="translate(11 11)"><circle cx="44" cy="44" r="44" stroke="none"/><circle cx="44" cy="44" r="43.5"/></g></g></svg>