<svg xmlns="http://www.w3.org/2000/svg" width="110" height="110" viewBox="0 0 110 110">
  <g id="stage-3" transform="translate(-741.848 -3109)">
    <g id="syrange" transform="translate(769.553 3132.684)">
      <path id="Path_206" data-name="Path 206" d="M36.572-83.122l-23.41,23.41L10.438-41.919h0l17.783-2.553,23.5-23.5" transform="translate(-4.302 91.781)" fill="none" stroke="#014f80" stroke-linecap="round" stroke-linejoin="round" stroke-width="2"/>
      <line id="Line_12" data-name="Line 12" x1="6.136" y2="6.136" transform="translate(0 49.862)" fill="none" stroke="#014f80" stroke-linecap="round" stroke-linejoin="round" stroke-width="2"/>
      <line id="Line_13" data-name="Line 13" x1="5.535" y1="5.535" transform="translate(35.623 24.536)" fill="none" stroke="#014f80" stroke-linecap="round" stroke-linejoin="round" stroke-width="2"/>
      <line id="Line_14" data-name="Line 14" x1="5.535" y1="5.535" transform="translate(31.01 29.149)" fill="none" stroke="#014f80" stroke-linecap="round" stroke-linejoin="round" stroke-width="2"/>
      <line id="Line_15" data-name="Line 15" x1="5.535" y1="5.535" transform="translate(26.397 33.762)" fill="none" stroke="#014f80" stroke-linecap="round" stroke-linejoin="round" stroke-width="2"/>
      <line id="Line_16" data-name="Line 16" x1="5.535" y1="5.535" transform="translate(21.783 38.376)" fill="none" stroke="#014f80" stroke-linecap="round" stroke-linejoin="round" stroke-width="2"/>
      <line id="Line_17" data-name="Line 17" x2="23.113" y2="23.113" transform="translate(28.248 4.636)" fill="none" stroke="#014f80" stroke-linecap="round" stroke-linejoin="round" stroke-width="2"/>
      <line id="Line_18" data-name="Line 18" x1="8.583" y2="8.583" transform="translate(36.892 4.735)" fill="none" stroke="#014f80" stroke-linecap="round" stroke-linejoin="round" stroke-width="2"/>
      <path id="Path_213" data-name="Path 213" d="M-4.914,2.062.714,7.85,8.029.535l-5.717-5.7Z" transform="translate(42.671 10.495)" fill="#014f80" stroke="#014f80" stroke-linecap="round" stroke-width="2"/>
      <line id="Line_20" data-name="Line 20" x2="15.149" y2="15.149" transform="translate(40.74)" fill="none" stroke="#014f80" stroke-linecap="round" stroke-linejoin="round" stroke-width="2"/>
    </g>
    <g id="Group_331" data-name="Group 331" transform="translate(741.848 3109)">
      <g id="Ellipse_284" data-name="Ellipse 284" fill="none" stroke="#014f80" stroke-width="4">
        <circle cx="55" cy="55" r="55" stroke="none"/>
        <circle cx="55" cy="55" r="53" fill="none"/>
      </g>
      <g id="Ellipse_292" data-name="Ellipse 292" transform="translate(11 11)" fill="none" stroke="#014f80" stroke-width="1">
        <circle cx="44" cy="44" r="44" stroke="none"/>
        <circle cx="44" cy="44" r="43.5" fill="none"/>
      </g>
    </g>
  </g>
</svg>
