<svg xmlns="http://www.w3.org/2000/svg" width="19.064" height="19.064" viewBox="0 0 19.064 19.064">
  <path id="ico-phone-blue" d="M7.707,18.11a1.893,1.893,0,0,0-.18-1.007q-.063-.235-.187-.657t-.222-.768q-.1-.349-.176-.66c-.005-.036-.025-.148-.059-.332a3.16,3.16,0,0,0-.109-.446.725.725,0,0,0-.168-.277.922.922,0,0,0-.613-.168,5.329,5.329,0,0,0-.914.054,6.718,6.718,0,0,1-.9.07.842.842,0,0,1-.582-.136.753.753,0,0,1-.137-.215c-.044-.1-.075-.173-.094-.226s-.044-.154-.078-.3-.053-.223-.059-.238a11.582,11.582,0,0,1-.476-3.193,11.584,11.584,0,0,1,.476-3.194c.005-.016.025-.095.059-.238s.06-.242.078-.3a2.414,2.414,0,0,1,.094-.226A.74.74,0,0,1,3.6,5.445a.841.841,0,0,1,.582-.137,6.719,6.719,0,0,1,.9.07,5.329,5.329,0,0,0,.914.055.916.916,0,0,0,.613-.168.719.719,0,0,0,.168-.277,3.129,3.129,0,0,0,.109-.445c.034-.184.053-.3.059-.331q.078-.313.176-.661t.222-.768c.083-.281.146-.5.187-.656a1.9,1.9,0,0,0,.18-1.008.613.613,0,0,0-.14-.187A3.668,3.668,0,0,0,6.938.46a4.31,4.31,0,0,0-.7-.371,2.953,2.953,0,0,0-1.78.124A4.281,4.281,0,0,0,2.608,1.268a4.242,4.242,0,0,0-.383.438,4.78,4.78,0,0,0-.351.546q-.18.32-.258.484c-.052.109-.143.308-.273.594s-.211.459-.242.522A10,10,0,0,0,.383,5.866,16.381,16.381,0,0,0,0,9.615a16.378,16.378,0,0,0,.383,3.748A10,10,0,0,0,1.1,15.377c.031.063.112.237.242.523s.221.484.273.593.138.271.258.484a4.727,4.727,0,0,0,.351.547,4.148,4.148,0,0,0,.383.437,4.281,4.281,0,0,0,1.851,1.055,2.964,2.964,0,0,0,1.78.125,4.445,4.445,0,0,0,.7-.37,3.765,3.765,0,0,0,.629-.472.617.617,0,0,0,.14-.188Z" transform="translate(0 5.466) rotate(-45)" fill="#014f80"/>
</svg>
