<svg xmlns="http://www.w3.org/2000/svg" xmlns:xlink="http://www.w3.org/1999/xlink" width="29" height="29" viewBox="0 0 29 29">
  <defs>
    <clipPath id="clip-path">
      <rect width="29" height="29" fill="none"/>
    </clipPath>
  </defs>
  <g id="ico-search-blue" clip-path="url(#clip-path)">
    <path id="Path_2" data-name="Path 2" d="M3.625,12.688a8.974,8.974,0,0,1,9.063-9.062,8.974,8.974,0,0,1,9.063,9.063,8.974,8.974,0,0,1-9.062,9.063A8.974,8.974,0,0,1,3.625,12.688ZM25.919,28.456a1.794,1.794,0,0,0,2.538-2.538L22.838,20.3a12.41,12.41,0,0,0,2.537-7.613A12.609,12.609,0,0,0,12.688,0,12.609,12.609,0,0,0,0,12.688,12.609,12.609,0,0,0,12.688,25.375,12.41,12.41,0,0,0,20.3,22.838Z" fill="#2699fb"/>
  </g>
</svg>
