<svg xmlns="http://www.w3.org/2000/svg" width="16.705" height="16.704" viewBox="0 0 16.705 16.704">
  <path id="ico-phone-white" d="M223.021,39.463a1.66,1.66,0,0,0-.157-.883q-.055-.206-.164-.575t-.195-.673q-.086-.3-.154-.578c0-.032-.022-.129-.051-.291a2.741,2.741,0,0,0-.1-.39.632.632,0,0,0-.147-.243.8.8,0,0,0-.537-.146,4.639,4.639,0,0,0-.8.048,5.984,5.984,0,0,1-.787.061.737.737,0,0,1-.51-.119.653.653,0,0,1-.12-.188,2.023,2.023,0,0,1-.082-.2c-.016-.048-.039-.135-.068-.26s-.047-.195-.051-.209a9.589,9.589,0,0,1,0-5.6c0-.014.022-.083.051-.209s.052-.212.068-.26a2.084,2.084,0,0,1,.082-.2.664.664,0,0,1,.12-.188.737.737,0,0,1,.51-.119,5.983,5.983,0,0,1,.787.061,4.7,4.7,0,0,0,.8.048.807.807,0,0,0,.537-.147.632.632,0,0,0,.147-.243,2.741,2.741,0,0,0,.1-.39c.03-.162.047-.259.051-.291q.068-.274.154-.578t.195-.673c.073-.246.128-.438.164-.575a1.662,1.662,0,0,0,.157-.883.548.548,0,0,0-.123-.164,3.252,3.252,0,0,0-.551-.413,3.825,3.825,0,0,0-.612-.325,2.591,2.591,0,0,0-1.56.109,3.747,3.747,0,0,0-1.621.924,3.657,3.657,0,0,0-.335.383,4.134,4.134,0,0,0-.308.479q-.157.28-.226.424t-.239.52c-.114.251-.185.4-.212.458a8.763,8.763,0,0,0-.629,1.765,14.347,14.347,0,0,0-.335,3.284A14.344,14.344,0,0,0,216.6,35.3a8.763,8.763,0,0,0,.629,1.765c.027.055.1.207.212.458s.194.424.239.52.121.237.226.424a4.134,4.134,0,0,0,.308.479,3.53,3.53,0,0,0,.335.383,3.747,3.747,0,0,0,1.621.924,2.6,2.6,0,0,0,1.56.11,3.922,3.922,0,0,0,.612-.325,3.212,3.212,0,0,0,.551-.414.548.548,0,0,0,.123-.164Z" transform="translate(-169.608 141.031) rotate(-45)" fill="#fff"/>
</svg>
