<svg xmlns="http://www.w3.org/2000/svg" width="110" height="110" viewBox="0 0 110 110">
  <g id="ico-msg" transform="translate(-40 -40)">
    <g id="Ellipse_49" data-name="Ellipse 49" transform="translate(40 40)" fill="#fff" stroke="#014f80" stroke-width="4">
      <circle cx="55" cy="55" r="55" stroke="none"/>
      <circle cx="55" cy="55" r="53" fill="none"/>
    </g>
    <g id="Ellipse_48" data-name="Ellipse 48" transform="translate(51 51)" fill="#fff" stroke="#014f80" stroke-width="1">
      <circle cx="44" cy="44" r="44" stroke="none"/>
      <circle cx="44" cy="44" r="43.5" fill="none"/>
    </g>
    <path id="Path_211" data-name="Path 211" d="M7.5,0H29.989a7.5,7.5,0,0,1,7.5,7.5v12a7.5,7.5,0,0,1-7.5,7.5H19.522l-8.264,5.385V26.99H7.5a7.5,7.5,0,0,1-7.5-7.5V7.5A7.5,7.5,0,0,1,7.5,0Z" transform="translate(68.388 74.787)" fill="#014f80"/>
    <g id="Path_212" data-name="Path 212" transform="translate(89.982 87.787)" fill="none" stroke-linecap="round">
      <path d="M24.715,0H6.179A6.179,6.179,0,0,0,0,6.179v9.886a6.179,6.179,0,0,0,6.179,6.179H14.8l6.811,4.438V22.243h3.1a6.179,6.179,0,0,0,6.179-6.179V6.179A6.179,6.179,0,0,0,24.715,0Z" stroke="none"/>
      <path d="M 6.178676605224609 1.999998092651367 C 3.874546051025391 1.999998092651367 1.999996185302734 3.874538421630859 1.999996185302734 6.178668975830078 L 1.999996185302734 16.06452941894531 C 1.999996185302734 18.3686580657959 3.874546051025391 20.24319839477539 6.178676605224609 20.24319839477539 L 14.80493545532227 20.24319839477539 L 15.39907550811768 20.24319839477539 L 15.89684581756592 20.56756782531738 L 19.61572647094727 22.99094772338867 L 19.61572647094727 22.24319839477539 L 19.61572647094727 20.24319839477539 L 21.61572647094727 20.24319839477539 L 24.71469497680664 20.24319839477539 C 27.01882553100586 20.24319839477539 28.89337539672852 18.3686580657959 28.89337539672852 16.06452941894531 L 28.89337539672852 6.178668975830078 C 28.89337539672852 3.874538421630859 27.01882553100586 1.999998092651367 24.71469497680664 1.999998092651367 L 6.178676605224609 1.999998092651367 M 6.178676605224609 -1.9073486328125e-06 L 24.71469497680664 -1.9073486328125e-06 C 28.1270866394043 -1.9073486328125e-06 30.89337539672852 2.766277313232422 30.89337539672852 6.178668975830078 L 30.89337539672852 16.06452941894531 C 30.89337539672852 19.47690773010254 28.1270866394043 22.24319839477539 24.71469497680664 22.24319839477539 L 21.61572647094727 22.24319839477539 L 21.61572647094727 26.68139839172363 L 14.80493545532227 22.24319839477539 L 6.178676605224609 22.24319839477539 C 2.766284942626953 22.24319839477539 -3.814697265625e-06 19.47690773010254 -3.814697265625e-06 16.06452941894531 L -3.814697265625e-06 6.178668975830078 C -3.814697265625e-06 2.766277313232422 2.766284942626953 -1.9073486328125e-06 6.178676605224609 -1.9073486328125e-06 Z" stroke="none" fill="#014f80"/>
    </g>
    <line id="Line_42" data-name="Line 42" x2="22" transform="translate(76.5 83.5)" fill="none" stroke="#fff" stroke-width="2"/>
    <line id="Line_43" data-name="Line 43" x2="22" transform="translate(76.5 87.5)" fill="none" stroke="#fff" stroke-width="2"/>
    <line id="Line_44" data-name="Line 44" x2="17" transform="translate(76.5 91.5)" fill="none" stroke="#fff" stroke-width="2"/>
  </g>
</svg>
