<svg id="logo-mini" xmlns="http://www.w3.org/2000/svg" width="87.24" height="60.885" viewBox="0 0 87.24 60.885">
  <g id="Group_484" data-name="Group 484" transform="translate(-761.855 -498.06)">
    <path id="Path_295" data-name="Path 295" d="M827.929,557.742h-22.6q-1.45-4.273-2.9-8.55t-3.067-7.926a38.227,38.227,0,0,0-2.3-4.587,12.057,12.057,0,0,0-2.8-3.216,10.2,10.2,0,0,0-3.795-1.972,19,19,0,0,0-5.247-.643v18.22a5.267,5.267,0,0,0,.6,2.532,4,4,0,0,0,2.055,1.743,15.484,15.484,0,0,0,2.7.706,26.5,26.5,0,0,0,3.112.456v3.237H761.855v-3.237q1.037-.04,3.05-.27a13.986,13.986,0,0,0,2.927-.56,3.588,3.588,0,0,0,2.075-1.64,5.477,5.477,0,0,0,.581-2.594v-41.67a5.27,5.27,0,0,0-.519-2.449,4.328,4.328,0,0,0-2.137-1.742,16.994,16.994,0,0,0-3.155-.976,26.1,26.1,0,0,0-2.822-.518v-3.238h31.833v3.238a26.716,26.716,0,0,0-3.071.414,27.513,27.513,0,0,0-2.739.623,3.3,3.3,0,0,0-2.138,1.723,6.178,6.178,0,0,0-.518,2.51v19.59h2.7a13.609,13.609,0,0,0,3.472-.477,7.173,7.173,0,0,0,3.266-1.93,22.5,22.5,0,0,0,4.484-5.956,50.753,50.753,0,0,0,2.567-6.163q1.242-3.486,2.238-5.914a16.623,16.623,0,0,1,3.941-5.292,10.519,10.519,0,0,1,3.567-2.3,12.359,12.359,0,0,1,4.646-.85,9.582,9.582,0,0,1,6.554,2.116,6.873,6.873,0,0,1,2.405,5.4,7.557,7.557,0,0,1-2.033,5.623,7.064,7.064,0,0,1-5.188,2.014,7.323,7.323,0,0,1-3.881-1.162,19.463,19.463,0,0,1-4.5-4.483,10.819,10.819,0,0,0-2.179,3.963q-.934,2.679-1.722,4.67a29.676,29.676,0,0,1-3.155,6.246,15.052,15.052,0,0,1-3.528,3.549v.746a22.315,22.315,0,0,1,9.629,5.065,27.224,27.224,0,0,1,6.184,8.591q1.038,2.2,2.138,4.669t1.93,4.212a9.347,9.347,0,0,0,2.511,3.57,5.211,5.211,0,0,0,2.013,1q.954.207,2.345.394t2.3.27Z" fill="#2699fb"/>
    <path id="Path_296" data-name="Path 296" d="M849.1,550.853a7.74,7.74,0,0,1-2.428,5.686,7.893,7.893,0,0,1-5.748,2.406,7.977,7.977,0,0,1-5.79-2.385,7.722,7.722,0,0,1-2.428-5.707,8.2,8.2,0,0,1,16.394,0Z" fill="#2699fb"/>
  </g>
</svg>
