<svg xmlns="http://www.w3.org/2000/svg" width="113.904" height="22.973" viewBox="0 0 113.904 22.973">
  <g id="main-logo" transform="translate(-606.469 -523.892)">
    <g id="Component" transform="translate(606.468 523.892)">
      <path id="Path_288" data-name="Path 288" d="M625.9,541.445h-6.645q-.427-1.256-.854-2.514t-.9-2.331a11.342,11.342,0,0,0-.677-1.35A3.537,3.537,0,0,0,616,534.3a3,3,0,0,0-1.116-.58,5.593,5.593,0,0,0-1.544-.189V538.9a1.548,1.548,0,0,0,.177.744,1.173,1.173,0,0,0,.6.513,4.578,4.578,0,0,0,.793.208,8.158,8.158,0,0,0,.916.134v.951h-9.363v-.951c.2-.008.5-.035.9-.079a4.139,4.139,0,0,0,.861-.165,1.055,1.055,0,0,0,.61-.483,1.609,1.609,0,0,0,.171-.763V526.749a1.541,1.541,0,0,0-.153-.721,1.278,1.278,0,0,0-.628-.512,4.96,4.96,0,0,0-.928-.287,7.2,7.2,0,0,0-.83-.152v-.953h9.363v.953a7.5,7.5,0,0,0-.9.121,8.145,8.145,0,0,0-.8.183.969.969,0,0,0-.629.507,1.814,1.814,0,0,0-.153.738v5.762h.795a4.033,4.033,0,0,0,1.022-.14,2.106,2.106,0,0,0,.96-.568,6.608,6.608,0,0,0,1.319-1.752,15.022,15.022,0,0,0,.755-1.812q.366-1.026.658-1.74a4.9,4.9,0,0,1,1.159-1.556,3.1,3.1,0,0,1,1.05-.678,3.641,3.641,0,0,1,1.366-.25,2.825,2.825,0,0,1,1.928.622,2.024,2.024,0,0,1,.707,1.588,2.224,2.224,0,0,1-.6,1.653,2.075,2.075,0,0,1-1.526.593,2.153,2.153,0,0,1-1.142-.342,5.756,5.756,0,0,1-1.324-1.318,3.17,3.17,0,0,0-.64,1.165q-.276.787-.507,1.374a8.77,8.77,0,0,1-.928,1.837,4.436,4.436,0,0,1-1.038,1.044v.219a6.553,6.553,0,0,1,2.832,1.49,7.994,7.994,0,0,1,1.819,2.526q.3.648.629,1.373t.568,1.24a2.749,2.749,0,0,0,.738,1.049,1.525,1.525,0,0,0,.592.293c.187.041.417.079.69.117s.5.062.677.079Z" transform="translate(-606.468 -523.892)" fill="#2699fb"/>
      <path id="Path_289" data-name="Path 289" d="M640.269,541.189a9.116,9.116,0,0,1-1.267.427,5.98,5.98,0,0,1-1.547.2,4.241,4.241,0,0,1-2.205-.446,2.229,2.229,0,0,1-.962-1.276h-.074a7.9,7.9,0,0,1-.8.709,4.628,4.628,0,0,1-.826.5,6.185,6.185,0,0,1-1.106.4,6.351,6.351,0,0,1-1.486.135,3.66,3.66,0,0,1-2.421-.836,2.751,2.751,0,0,1-1-2.22,3.672,3.672,0,0,1,.22-1.351,3.029,3.029,0,0,1,.624-.984,3.222,3.222,0,0,1,.849-.648,9.133,9.133,0,0,1,1.058-.476q1.1-.4,2.641-.838a14.865,14.865,0,0,0,2.249-.776v-1.172q0-.3-.048-.806a2.635,2.635,0,0,0-.208-.842,1.611,1.611,0,0,0-.538-.66,1.591,1.591,0,0,0-.964-.268,2.3,2.3,0,0,0-.9.153,2.968,2.968,0,0,0-.58.31,4.633,4.633,0,0,0,.208.745,2.983,2.983,0,0,1,.171.964,1.637,1.637,0,0,1-.11.52,1.161,1.161,0,0,1-.319.494,2.117,2.117,0,0,1-.63.379,3.2,3.2,0,0,1-1.071.134,2.2,2.2,0,0,1-1.555-.494,1.744,1.744,0,0,1,.016-2.515,4.477,4.477,0,0,1,1.325-.9,7.6,7.6,0,0,1,1.77-.567,9.39,9.39,0,0,1,1.856-.2,15.605,15.605,0,0,1,2.172.14,5.126,5.126,0,0,1,1.783.58,3.1,3.1,0,0,1,1.2,1.239,4.385,4.385,0,0,1,.446,2.117q0,1.38-.056,3.272t-.054,2.49a1.885,1.885,0,0,0,.165.867,1.049,1.049,0,0,0,.506.477,1.823,1.823,0,0,0,.653.115q.446.018.812.018Zm-6.055-6.359q-.685.232-1.36.532a5.452,5.452,0,0,0-1.1.63,2.363,2.363,0,0,0-.71.875,2.849,2.849,0,0,0-.258,1.255,1.879,1.879,0,0,0,.435,1.382,1.466,1.466,0,0,0,1.072.428,2.046,2.046,0,0,0,1.109-.275,3.232,3.232,0,0,0,.766-.679Z" transform="translate(-606.468 -523.892)" fill="#2699fb"/>
      <path id="Path_290" data-name="Path 290" d="M656.077,535.5a6.253,6.253,0,0,1-1.719,4.42,5.7,5.7,0,0,1-4.352,1.843,6.243,6.243,0,0,1-1.9-.239,4.4,4.4,0,0,1-1.207-.578h-.1v3.429a1.424,1.424,0,0,0,.189.744,1.114,1.114,0,0,0,.531.465,5.029,5.029,0,0,0,.934.244,9.2,9.2,0,0,0,1.007.134v.9h-8.826v-.9c.2-.017.46-.047.769-.092a4.777,4.777,0,0,0,.7-.14.838.838,0,0,0,.531-.458,1.828,1.828,0,0,0,.14-.739V532.046a1.961,1.961,0,0,0-.189-.708,1.467,1.467,0,0,0-.482-.537,2.213,2.213,0,0,0-.647-.262,4.928,4.928,0,0,0-.793-.14v-.892l5.956-.317.184.158V530.7l.1.024a6.052,6.052,0,0,1,1.786-1.27,4.642,4.642,0,0,1,1.945-.452,4.876,4.876,0,0,1,3.986,1.789A7.2,7.2,0,0,1,656.077,535.5Zm-4.382.049a11.106,11.106,0,0,0-.134-1.751,4.939,4.939,0,0,0-.475-1.495,2.817,2.817,0,0,0-.871-1.051,2.206,2.206,0,0,0-1.321-.39,2.521,2.521,0,0,0-1.266.275,2.936,2.936,0,0,0-.828.714v6.921a3.579,3.579,0,0,0,.28.629,3.226,3.226,0,0,0,.414.617,1.938,1.938,0,0,0,.694.488,2.237,2.237,0,0,0,.853.159,2.17,2.17,0,0,0,1.929-1.3A8.01,8.01,0,0,0,651.7,535.549Z" transform="translate(-606.468 -523.892)" fill="#2699fb"/>
      <path id="Path_291" data-name="Path 291" d="M673.667,541.445h-7.36v-.89c.146-.025.323-.059.53-.1a1.807,1.807,0,0,0,.507-.177.852.852,0,0,0,.391-.428,2.136,2.136,0,0,0,.1-.732v-8.606h-4.3v8.606a2.1,2.1,0,0,0,.1.726.823.823,0,0,0,.385.434,1.837,1.837,0,0,0,.47.177,5.048,5.048,0,0,0,.568.1v.89H657.7v-.89c.2-.016.409-.039.616-.067a3.086,3.086,0,0,0,.531-.116.9.9,0,0,0,.537-.415,1.584,1.584,0,0,0,.147-.733v-7.666a1.58,1.58,0,0,0-.153-.726.855.855,0,0,0-.531-.421,3.158,3.158,0,0,0-.586-.128c-.179-.021-.366-.039-.561-.056v-.891h15.966v.891c-.244.017-.447.037-.61.062a4.019,4.019,0,0,0-.537.122.869.869,0,0,0-.519.4,1.5,1.5,0,0,0-.165.751v7.666a1.606,1.606,0,0,0,.153.738.815.815,0,0,0,.531.41,4.705,4.705,0,0,0,.519.122c.15.024.36.045.628.061Z" transform="translate(-606.468 -523.892)" fill="#2699fb"/>
      <path id="Path_292" data-name="Path 292" d="M685.2,540.176a5.64,5.64,0,0,1-1.391-1.941,7.01,7.01,0,0,1-.55-2.624h-2.246v3.5a1.8,1.8,0,0,0,.122.709.92.92,0,0,0,.4.439,2.053,2.053,0,0,0,.482.183,4.77,4.77,0,0,0,.58.11v.89h-7.422v-.89c.2-.016.409-.039.616-.067a3.12,3.12,0,0,0,.532-.116.9.9,0,0,0,.537-.415,1.6,1.6,0,0,0,.146-.733v-7.666a1.593,1.593,0,0,0-.152-.726.854.854,0,0,0-.531-.421,3.172,3.172,0,0,0-.586-.128c-.18-.021-.367-.039-.562-.056v-.891H682.6v.891q-.293.038-.543.092a1.971,1.971,0,0,0-.519.2.868.868,0,0,0-.409.452,1.892,1.892,0,0,0-.116.7v2.807h2.295a6.557,6.557,0,0,1,.659-2.233,5.689,5.689,0,0,1,1.367-1.734,6.116,6.116,0,0,1,2.033-1.123,8.3,8.3,0,0,1,2.667-.4,8.439,8.439,0,0,1,2.942.47,6.19,6.19,0,0,1,2.161,1.324,5.644,5.644,0,0,1,1.349,2.008,6.87,6.87,0,0,1,.457,2.546,7.147,7.147,0,0,1-.457,2.556,5.689,5.689,0,0,1-1.325,2.057,6.51,6.51,0,0,1-2.191,1.4,8.383,8.383,0,0,1-3.046.494,7.812,7.812,0,0,1-2.624-.428A6.13,6.13,0,0,1,685.2,540.176Zm6.787-.939a7.281,7.281,0,0,0,.4-1.74,20.405,20.405,0,0,0,.1-2.192q0-.975-.1-1.965a7.429,7.429,0,0,0-.354-1.72,2.952,2.952,0,0,0-.769-1.191,1.844,1.844,0,0,0-1.294-.458,1.928,1.928,0,0,0-1.337.464,2.991,2.991,0,0,0-.8,1.245,7.2,7.2,0,0,0-.336,1.715q-.08.96-.079,1.861,0,1.2.1,2.192a7.122,7.122,0,0,0,.379,1.763,2.8,2.8,0,0,0,.769,1.2,1.905,1.905,0,0,0,1.306.439,1.868,1.868,0,0,0,1.233-.416A2.694,2.694,0,0,0,691.99,539.237Z" transform="translate(-606.468 -523.892)" fill="#2699fb"/>
      <path id="Path_293" data-name="Path 293" d="M713.755,541.445h-5.663q-.222-1.049-.4-1.781t-.472-1.612a3.917,3.917,0,0,0-.947-1.641,2.692,2.692,0,0,0-1.833-.569v3.272a1.8,1.8,0,0,0,.122.709.925.925,0,0,0,.4.439,2.054,2.054,0,0,0,.482.183,4.808,4.808,0,0,0,.58.11v.89h-7.422v-.89c.2-.016.41-.039.617-.067a3.108,3.108,0,0,0,.531-.116.9.9,0,0,0,.537-.415,1.585,1.585,0,0,0,.146-.733v-7.666a1.58,1.58,0,0,0-.152-.726.854.854,0,0,0-.531-.421,3.158,3.158,0,0,0-.586-.128c-.179-.021-.366-.039-.562-.056v-.891h7.422v.891q-.293.038-.543.092a1.972,1.972,0,0,0-.519.2.867.867,0,0,0-.408.452,1.871,1.871,0,0,0-.117.7v3.2H705a2.844,2.844,0,0,0,.977-.14,1.21,1.21,0,0,0,.6-.47,4.975,4.975,0,0,0,.537-1.087q.182-.537.328-1.049a7.661,7.661,0,0,1,.377-1.063,4.451,4.451,0,0,1,.659-1.037,2.7,2.7,0,0,1,1-.763,3.34,3.34,0,0,1,1.344-.251,2.8,2.8,0,0,1,1.094.19,2,2,0,0,1,.7.471,1.706,1.706,0,0,1,.4.64,2.254,2.254,0,0,1,.116.714,1.937,1.937,0,0,1-.531,1.478,1.782,1.782,0,0,1-1.264.5,2.117,2.117,0,0,1-1.2-.391,4.884,4.884,0,0,1-.995-.879,1.168,1.168,0,0,0-.446.543c-.109.249-.217.515-.323.8q-.171.451-.348.873a2.263,2.263,0,0,1-.519.751,4.266,4.266,0,0,1,2.131,1.018,5.2,5.2,0,0,1,1.324,1.863q.207.487.434,1.012t.384.892a1.493,1.493,0,0,0,.549.7,1.47,1.47,0,0,0,.5.214c.113.024.272.055.476.092s.354.058.451.067Z" transform="translate(-606.468 -523.892)" fill="#2699fb"/>
      <path id="Path_294" data-name="Path 294" d="M720.372,539.419a2.283,2.283,0,0,1-.714,1.673,2.4,2.4,0,0,1-3.394.006,2.271,2.271,0,0,1-.714-1.679,2.411,2.411,0,0,1,4.822,0Z" transform="translate(-606.468 -523.892)" fill="#2699fb"/>
    </g>
  </g>
</svg>
