<svg xmlns="http://www.w3.org/2000/svg" width="19.064" height="19.064"><path d="M18.255 12.822a1.893 1.893 0 00-.839-.585q-.21-.121-.597-.332t-.7-.386q-.317-.176-.59-.342a12.66 12.66 0 00-.277-.193 3.16 3.16 0 00-.393-.239.725.725 0 00-.315-.077.922.922 0 00-.552.315 5.329 5.329 0 00-.608.684 6.718 6.718 0 01-.587.686.842.842 0 01-.507.316.753.753 0 01-.25-.056c-.101-.04-.175-.069-.226-.093s-.14-.078-.267-.157-.195-.12-.21-.126a11.582 11.582 0 01-2.594-1.922A11.584 11.584 0 016.82 7.72c-.008-.015-.05-.085-.127-.21s-.129-.213-.157-.267a2.414 2.414 0 01-.093-.226.74.74 0 01-.048-.246.841.841 0 01.314-.509 6.719 6.719 0 01.686-.587 5.329 5.329 0 00.686-.607.916.916 0 00.314-.552.719.719 0 00-.077-.315 3.129 3.129 0 00-.237-.392l-.193-.276q-.166-.276-.343-.591t-.386-.7a24.8 24.8 0 00-.331-.596 1.9 1.9 0 00-.586-.84.613.613 0 00-.231-.034 3.668 3.668 0 00-.78.113 4.31 4.31 0 00-.758.233 2.953 2.953 0 00-1.171 1.346 4.281 4.281 0 00-.562 2.054 4.242 4.242 0 00.039.581 4.78 4.78 0 00.138.634q.099.354.16.525c.04.114.116.319.226.613s.176.474.198.54a10 10 0 00.917 1.932 16.381 16.381 0 002.38 2.922 16.378 16.378 0 002.92 2.38 10 10 0 001.932.916c.066.023.247.089.54.2s.5.185.613.225.29.094.525.16a4.727 4.727 0 00.635.139 4.148 4.148 0 00.58.038 4.281 4.281 0 002.055-.563 2.964 2.964 0 001.347-1.17 4.445 4.445 0 00.233-.757 3.765 3.765 0 00.111-.778.617.617 0 00-.034-.232z" fill="#014f80"/></svg>