<svg xmlns="http://www.w3.org/2000/svg" width="29" height="29"><defs><clipPath id="a"><path fill="none" d="M0 0h29v29H0z"/></clipPath></defs><g clip-path="url(#a)"><path data-name="Path 2" d="M3.625 12.688a8.974 8.974 0 019.063-9.062 8.974 8.974 0 019.063 9.063 8.974 8.974 0 01-9.062 9.063 8.974 8.974 0 01-9.064-9.064zm22.294 15.768a1.794 1.794 0 002.538-2.538L22.838 20.3a12.41 12.41 0 002.537-7.613A12.609 12.609 0 0012.688 0 12.609 12.609 0 000 12.688a12.609 12.609 0 0012.688 12.687 12.41 12.41 0 007.612-2.537z" fill="#2699fb"/></g></svg>