<svg xmlns="http://www.w3.org/2000/svg" width="16.705" height="16.704"><path d="M15.996 11.236a1.66 1.66 0 00-.735-.513q-.185-.107-.523-.291t-.613-.338q-.273-.151-.518-.3c-.023-.023-.107-.076-.242-.17a2.741 2.741 0 00-.346-.205.632.632 0 00-.276-.068.8.8 0 00-.483.277 4.639 4.639 0 00-.532.6 5.984 5.984 0 01-.513.6.737.737 0 01-.445.276.653.653 0 01-.218-.048 2.023 2.023 0 01-.2-.084c-.044-.022-.122-.068-.231-.136s-.171-.104-.184-.111a9.589 9.589 0 01-3.96-3.96c-.01-.01-.043-.074-.112-.184s-.113-.187-.135-.232a2.084 2.084 0 01-.084-.2.664.664 0 01-.048-.217.737.737 0 01.277-.445 5.983 5.983 0 01.6-.513 4.7 4.7 0 00.599-.532.807.807 0 00.276-.484.632.632 0 00-.068-.275 2.741 2.741 0 00-.205-.347 8.144 8.144 0 00-.17-.242q-.146-.242-.3-.517t-.338-.614c-.122-.226-.219-.4-.29-.523a1.662 1.662 0 00-.514-.735.548.548 0 00-.203-.029 3.252 3.252 0 00-.681.098 3.825 3.825 0 00-.663.202 2.591 2.591 0 00-1.026 1.18 3.747 3.747 0 00-.493 1.8 3.657 3.657 0 00.034.508 4.134 4.134 0 00.121.556q.087.31.14.46t.199.537c.097.258.152.413.174.473a8.763 8.763 0 00.803 1.693 14.347 14.347 0 002.085 2.56 14.344 14.344 0 002.557 2.09 8.763 8.763 0 001.693.803c.058.02.217.075.474.174s.437.162.536.198.254.082.46.14a4.134 4.134 0 00.557.121 3.53 3.53 0 00.507.034 3.747 3.747 0 001.8-.493 2.6 2.6 0 001.18-1.025 3.922 3.922 0 00.204-.662 3.212 3.212 0 00.097-.683.548.548 0 00-.03-.203z" fill="#fff"/></svg>