<svg xmlns="http://www.w3.org/2000/svg" width="110" height="110"><g data-name="Ellipse 49" fill="#fff" stroke="#014f80" stroke-width="4"><circle cx="55" cy="55" r="55" stroke="none"/><circle cx="55" cy="55" r="53" fill="none"/></g><g data-name="Ellipse 48" transform="translate(11 11)" fill="#fff" stroke="#014f80"><circle cx="44" cy="44" r="44" stroke="none"/><circle cx="44" cy="44" r="43.5" fill="none"/></g><path data-name="Path 211" d="M35.888 34.787h22.489a7.5 7.5 0 017.5 7.5v12a7.5 7.5 0 01-7.5 7.5H47.91l-8.264 5.385v-5.395h-3.758a7.5 7.5 0 01-7.5-7.5v-11.99a7.5 7.5 0 017.5-7.5z" fill="#014f80"/><g data-name="Path 212" fill="none" stroke-linecap="round"><path d="M74.697 47.787H56.161a6.179 6.179 0 00-6.179 6.179v9.886a6.179 6.179 0 006.179 6.179h8.621l6.811 4.438V70.03h3.1a6.179 6.179 0 006.179-6.179v-9.885a6.179 6.179 0 00-6.175-6.179z"/><path d="M56.16 49.787a4.183 4.183 0 00-4.178 4.179v9.886a4.183 4.183 0 004.179 4.178h9.219l.498.325 3.719 2.423V68.03h5.099a4.183 4.183 0 004.178-4.178v-9.886a4.183 4.183 0 00-4.178-4.179H56.16m0-2h18.536a6.179 6.179 0 016.178 6.179v9.886a6.179 6.179 0 01-6.178 6.178h-3.1v4.438l-6.81-4.438H56.16a6.179 6.179 0 01-6.179-6.178v-9.886a6.179 6.179 0 016.179-6.179z" fill="#014f80"/></g><path data-name="Line 42" fill="none" stroke="#fff" stroke-width="2" d="M36.5 43.5h22"/><path data-name="Line 43" fill="none" stroke="#fff" stroke-width="2" d="M36.5 47.5h22"/><path data-name="Line 44" fill="none" stroke="#fff" stroke-width="2" d="M36.5 51.5h17"/></svg>