<svg xmlns="http://www.w3.org/2000/svg" width="87.24" height="60.885"><g data-name="Group 484" fill="#2699fb"><path data-name="Path 295" d="M66.074 59.682h-22.6l-2.9-8.55q-1.45-4.277-3.067-7.926a38.227 38.227 0 00-2.3-4.587 12.057 12.057 0 00-2.8-3.216 10.2 10.2 0 00-3.795-1.972 19 19 0 00-5.247-.643v18.22a5.267 5.267 0 00.6 2.532 4 4 0 002.055 1.743 15.484 15.484 0 002.7.706 26.5 26.5 0 003.112.456v3.237H0v-3.237q1.037-.04 3.05-.27a13.986 13.986 0 002.927-.56 3.588 3.588 0 002.075-1.64 5.477 5.477 0 00.581-2.594V9.711a5.27 5.27 0 00-.519-2.449A4.328 4.328 0 005.977 5.52a16.994 16.994 0 00-3.155-.976A26.1 26.1 0 000 4.026V.788h31.833v3.238a26.716 26.716 0 00-3.071.414 27.513 27.513 0 00-2.739.623 3.3 3.3 0 00-2.138 1.723 6.178 6.178 0 00-.518 2.51v19.59h2.7a13.609 13.609 0 003.472-.477 7.173 7.173 0 003.266-1.93 22.5 22.5 0 004.484-5.956 50.753 50.753 0 002.567-6.163q1.242-3.486 2.238-5.914a16.623 16.623 0 013.941-5.292 10.519 10.519 0 013.567-2.3 12.359 12.359 0 014.646-.85 9.582 9.582 0 016.554 2.116 6.873 6.873 0 012.405 5.4 7.557 7.557 0 01-2.033 5.623 7.064 7.064 0 01-5.188 2.014 7.323 7.323 0 01-3.881-1.162 19.463 19.463 0 01-4.5-4.483 10.819 10.819 0 00-2.179 3.963q-.934 2.679-1.722 4.67a29.676 29.676 0 01-3.155 6.246 15.052 15.052 0 01-3.528 3.549v.746a22.315 22.315 0 019.629 5.065 27.224 27.224 0 016.184 8.591q1.038 2.2 2.138 4.669t1.93 4.212a9.347 9.347 0 002.511 3.57 5.211 5.211 0 002.013 1q.954.207 2.345.394t2.3.27z"/><path data-name="Path 296" d="M87.245 52.793a7.74 7.74 0 01-2.428 5.686 7.893 7.893 0 01-5.748 2.406 7.977 7.977 0 01-5.79-2.385 7.722 7.722 0 01-2.428-5.707 8.2 8.2 0 0116.394 0z"/></g></svg>