<svg xmlns="http://www.w3.org/2000/svg" width="113.904" height="22.973"><g fill="#2699fb"><path data-name="Path 288" d="M19.431 17.553h-6.645l-.854-2.514q-.427-1.258-.9-2.331a11.342 11.342 0 00-.677-1.35 3.537 3.537 0 00-.824-.95 3 3 0 00-1.116-.58 5.593 5.593 0 00-1.544-.189v5.369a1.548 1.548 0 00.177.744 1.173 1.173 0 00.6.513 4.578 4.578 0 00.793.208 8.158 8.158 0 00.916.134v.951H-.006v-.951c.2-.008.5-.035.9-.079a4.139 4.139 0 00.861-.165 1.055 1.055 0 00.61-.483 1.609 1.609 0 00.171-.763V2.857a1.541 1.541 0 00-.153-.721 1.278 1.278 0 00-.628-.512 4.96 4.96 0 00-.928-.287 7.2 7.2 0 00-.83-.152V.232H9.36v.953a7.5 7.5 0 00-.9.121 8.145 8.145 0 00-.8.183.969.969 0 00-.629.507 1.814 1.814 0 00-.153.738v5.762h.795a4.033 4.033 0 001.022-.14 2.106 2.106 0 00.96-.568 6.608 6.608 0 001.319-1.752 15.022 15.022 0 00.755-1.812q.366-1.026.658-1.74A4.9 4.9 0 0113.546.928a3.1 3.1 0 011.05-.678A3.641 3.641 0 0115.962 0a2.825 2.825 0 011.928.622 2.024 2.024 0 01.707 1.588 2.224 2.224 0 01-.6 1.653 2.075 2.075 0 01-1.526.593 2.153 2.153 0 01-1.142-.342 5.756 5.756 0 01-1.324-1.318 3.17 3.17 0 00-.64 1.165q-.276.787-.507 1.374a8.77 8.77 0 01-.928 1.837 4.436 4.436 0 01-1.038 1.044v.219a6.553 6.553 0 012.832 1.49 7.994 7.994 0 011.819 2.526q.3.648.629 1.373t.568 1.24a2.749 2.749 0 00.738 1.049 1.525 1.525 0 00.592.293c.187.041.417.079.69.117s.5.062.677.079z"/><path data-name="Path 289" d="M33.8 17.297a9.116 9.116 0 01-1.267.427 5.98 5.98 0 01-1.547.2 4.241 4.241 0 01-2.205-.446 2.229 2.229 0 01-.962-1.276h-.074a7.9 7.9 0 01-.8.709 4.628 4.628 0 01-.826.5 6.185 6.185 0 01-1.106.4 6.351 6.351 0 01-1.486.135 3.66 3.66 0 01-2.421-.836 2.751 2.751 0 01-1-2.22 3.672 3.672 0 01.22-1.351 3.029 3.029 0 01.624-.984 3.222 3.222 0 01.849-.648 9.133 9.133 0 011.058-.476q1.1-.4 2.641-.838a14.865 14.865 0 002.249-.776V8.645q0-.3-.048-.806a2.635 2.635 0 00-.208-.842 1.611 1.611 0 00-.538-.66 1.591 1.591 0 00-.964-.268 2.3 2.3 0 00-.9.153 2.968 2.968 0 00-.58.31 4.633 4.633 0 00.208.745 2.983 2.983 0 01.171.964 1.637 1.637 0 01-.11.52 1.161 1.161 0 01-.319.494 2.117 2.117 0 01-.63.379 3.2 3.2 0 01-1.071.134 2.2 2.2 0 01-1.555-.494 1.744 1.744 0 01.016-2.515 4.477 4.477 0 011.325-.9 7.6 7.6 0 011.77-.567 9.39 9.39 0 011.856-.2 15.605 15.605 0 012.172.14 5.126 5.126 0 011.783.58 3.1 3.1 0 011.2 1.239 4.385 4.385 0 01.446 2.117q0 1.38-.056 3.272t-.054 2.49a1.885 1.885 0 00.165.867 1.049 1.049 0 00.506.477 1.823 1.823 0 00.653.115q.446.018.812.018zm-6.055-6.359q-.685.232-1.36.532a5.452 5.452 0 00-1.1.63 2.363 2.363 0 00-.71.875 2.849 2.849 0 00-.258 1.255 1.879 1.879 0 00.435 1.382 1.466 1.466 0 001.072.428 2.046 2.046 0 001.109-.275 3.232 3.232 0 00.766-.679z"/><path data-name="Path 290" d="M49.608 11.608a6.253 6.253 0 01-1.719 4.42 5.7 5.7 0 01-4.352 1.843 6.243 6.243 0 01-1.9-.239 4.4 4.4 0 01-1.207-.578h-.1v3.429a1.424 1.424 0 00.189.744 1.114 1.114 0 00.531.465 5.029 5.029 0 00.934.244 9.2 9.2 0 001.007.134v.9h-8.826v-.9c.2-.017.46-.047.769-.092a4.777 4.777 0 00.7-.14.838.838 0 00.531-.458 1.828 1.828 0 00.14-.739V8.154a1.961 1.961 0 00-.189-.708 1.467 1.467 0 00-.482-.537 2.213 2.213 0 00-.647-.262 4.928 4.928 0 00-.793-.14v-.892l5.956-.317.184.158v1.352l.1.024a6.052 6.052 0 011.786-1.27 4.642 4.642 0 011.945-.452 4.876 4.876 0 013.986 1.789 7.2 7.2 0 011.457 4.709zm-4.382.049a11.106 11.106 0 00-.134-1.751 4.939 4.939 0 00-.475-1.495 2.817 2.817 0 00-.871-1.051 2.206 2.206 0 00-1.321-.39 2.521 2.521 0 00-1.266.275 2.936 2.936 0 00-.828.714v6.921a3.579 3.579 0 00.28.629 3.226 3.226 0 00.414.617 1.938 1.938 0 00.694.488 2.237 2.237 0 00.853.159 2.17 2.17 0 001.929-1.3 8.01 8.01 0 00.73-3.816z"/><path data-name="Path 291" d="M67.198 17.553h-7.36v-.89c.146-.025.323-.059.53-.1a1.807 1.807 0 00.507-.177.852.852 0 00.391-.428 2.136 2.136 0 00.1-.732V6.62h-4.3v8.606a2.1 2.1 0 00.1.726.823.823 0 00.385.434 1.837 1.837 0 00.47.177 5.048 5.048 0 00.568.1v.89h-7.358v-.89c.2-.016.409-.039.616-.067a3.086 3.086 0 00.531-.116.9.9 0 00.537-.415 1.584 1.584 0 00.147-.733V7.666a1.58 1.58 0 00-.153-.726.855.855 0 00-.531-.421 3.158 3.158 0 00-.586-.128 19.017 19.017 0 00-.561-.056v-.891h15.966v.891a7.689 7.689 0 00-.61.062 4.019 4.019 0 00-.537.122.869.869 0 00-.519.4 1.5 1.5 0 00-.165.751v7.666a1.606 1.606 0 00.153.738.815.815 0 00.531.41 4.705 4.705 0 00.519.122c.15.024.36.045.628.061z"/><path data-name="Path 292" d="M78.731 16.284a5.64 5.64 0 01-1.391-1.941 7.01 7.01 0 01-.55-2.624h-2.246v3.5a1.8 1.8 0 00.122.709.92.92 0 00.4.439 2.053 2.053 0 00.482.183 4.77 4.77 0 00.58.11v.89h-7.422v-.89c.2-.016.409-.039.616-.067a3.12 3.12 0 00.532-.116.9.9 0 00.537-.415 1.6 1.6 0 00.146-.733V7.663a1.593 1.593 0 00-.152-.726.854.854 0 00-.531-.421 3.172 3.172 0 00-.586-.128 19.44 19.44 0 00-.562-.056v-.891h7.425v.891q-.293.038-.543.092a1.971 1.971 0 00-.519.2.868.868 0 00-.409.452 1.892 1.892 0 00-.116.7v2.807h2.295a6.557 6.557 0 01.659-2.233 5.689 5.689 0 011.367-1.734 6.116 6.116 0 012.033-1.123 8.3 8.3 0 012.667-.4 8.439 8.439 0 012.942.47 6.19 6.19 0 012.161 1.324 5.644 5.644 0 011.349 2.008 6.87 6.87 0 01.457 2.546 7.147 7.147 0 01-.457 2.556 5.689 5.689 0 01-1.325 2.057 6.51 6.51 0 01-2.191 1.4 8.383 8.383 0 01-3.046.494 7.812 7.812 0 01-2.624-.428 6.13 6.13 0 01-2.1-1.236zm6.787-.939a7.281 7.281 0 00.4-1.74 20.405 20.405 0 00.1-2.192q0-.975-.1-1.965a7.429 7.429 0 00-.354-1.72 2.952 2.952 0 00-.769-1.191 1.844 1.844 0 00-1.294-.458 1.928 1.928 0 00-1.337.464 2.991 2.991 0 00-.8 1.245 7.2 7.2 0 00-.336 1.715q-.08.96-.079 1.861 0 1.2.1 2.192a7.122 7.122 0 00.379 1.763 2.8 2.8 0 00.769 1.2 1.905 1.905 0 001.306.439 1.868 1.868 0 001.233-.416 2.694 2.694 0 00.785-1.197z"/><path data-name="Path 293" d="M107.286 17.553h-5.663q-.222-1.049-.4-1.781t-.472-1.612a3.917 3.917 0 00-.947-1.641 2.692 2.692 0 00-1.833-.569v3.272a1.8 1.8 0 00.122.709.925.925 0 00.4.439 2.054 2.054 0 00.482.183 4.808 4.808 0 00.58.11v.89h-7.422v-.89c.2-.016.41-.039.617-.067a3.108 3.108 0 00.531-.116.9.9 0 00.537-.415 1.585 1.585 0 00.146-.733V7.666a1.58 1.58 0 00-.152-.726.854.854 0 00-.531-.421 3.158 3.158 0 00-.586-.128 18.758 18.758 0 00-.562-.056v-.891h7.422v.891q-.293.038-.543.092a1.972 1.972 0 00-.519.2.867.867 0 00-.408.452 1.871 1.871 0 00-.117.7v3.2h.563a2.844 2.844 0 00.977-.14 1.21 1.21 0 00.6-.47 4.975 4.975 0 00.537-1.087q.182-.537.328-1.049a7.661 7.661 0 01.377-1.063 4.451 4.451 0 01.659-1.037 2.7 2.7 0 011-.763 3.34 3.34 0 011.344-.251 2.8 2.8 0 011.094.19 2 2 0 01.7.471 1.706 1.706 0 01.4.64 2.254 2.254 0 01.116.714 1.937 1.937 0 01-.531 1.478 1.782 1.782 0 01-1.264.5 2.117 2.117 0 01-1.2-.391 4.884 4.884 0 01-.995-.879 1.168 1.168 0 00-.446.543 15.25 15.25 0 00-.323.8q-.171.451-.348.873a2.263 2.263 0 01-.519.751 4.266 4.266 0 012.131 1.018 5.2 5.2 0 011.324 1.863q.207.487.434 1.012t.384.892a1.493 1.493 0 00.549.7 1.47 1.47 0 00.5.214c.113.024.272.055.476.092s.354.058.451.067z"/><path data-name="Path 294" d="M113.903 15.527a2.283 2.283 0 01-.714 1.673 2.4 2.4 0 01-3.394.006 2.271 2.271 0 01-.714-1.679 2.411 2.411 0 014.822 0z"/></g></svg>